# xmcd
#
# Track frame offsets:
#	150
#	11822
#	23177
#	34913
#	53484
#	65953
#	77328
#	94047
#	106367
#	121410
#	133085
#	145974
#	159402
#	172737
#	189259
#	206681
#	220199
#	235139
#	246898
#	263241
#	276568
#
# Disc length: 3979 seconds
#
# Revision: 1
# Processed by: cddbd v1.5.2PL0 Copyright (c) Steve Scherf et al.
# Submitted via: audiograbber 1.83.01
#
DISCID=2b0f8915
DTITLE=Various Artist - Heart of Texas
DYEAR=1998
DGENRE=CO
TTITLE0=Williams Leona - Yes Ma'am
TTITLE1=Bush Johnny and Darell McCall - 24th Hour
TTITLE2=Spinks Kelly - Mr. Jukebox
TTITLE3=Trevino Justin - As long as there's a Sunday
TTITLE4=Anderson Liz - All hat no Cattle
TTITLE5=Gray Claude - If i ever need a Lady
TTITLE6=Kirby Dave - What have you got Planned Tonight Diana
TTITLE7=Douglas Tony - Thank you for Touchingmy Life
TTITLE8=Nichols Joe Paul - Black Sheep
TTITLE9=Torres Frank - Lonestar Alley
TTITLE10=Williams Ron - Truckloads and Trainloads
TTITLE11=Bush Johnny - Texas Dance Hall Girl
TTITLE12=Williams Leona - We must have been out of our Minds
TTITLE13=Potter Curtis - Getting over you Again
TTITLE14=Lister Big Bill - Take me back
TTITLE15=Deeds Benny - Pickin' me up
TTITLE16=Anderson Casey - Six Gun Kid
TTITLE17=Williams Lawton - Neon Nights
TTITLE18=Gray Jan - My Walls
TTITLE19=Torres Frank - Tribute to a Country DJ
TTITLE20=Tubb Justin - What's Wrong with the Way we're Dong it now
EXTD=
EXTT0=
EXTT1=
EXTT2=
EXTT3=
EXTT4=
EXTT5=
EXTT6=
EXTT7=
EXTT8=
EXTT9=
EXTT10=
EXTT11=
EXTT12=
EXTT13=
EXTT14=
EXTT15=
EXTT16=
EXTT17=
EXTT18=
EXTT19=
EXTT20=
PLAYORDER=
